REM DIRINDEX 1\2\3,1\2\4,1\2\5,1\2\6
REM DIRNAME cjc157,folder01,folder02,folder03,folder04,folder05
TITLE ""
FILE "122 122.mp3" MP3
  TRACK 01 AUDIO
    TITLE "0:"
    INDEX 01 00:00:00
  TRACK 02 AUDIO
    TITLE "3:cjc157_4550"
    INDEX 01 00:00:11
  TRACK 03 AUDIO
    TITLE "0:"
    INDEX 01 00:01:15
  TRACK 04 AUDIO
    TITLE "4:cjc157_4551"
    INDEX 01 00:01:60
  TRACK 05 AUDIO
    TITLE "0:"
    INDEX 01 00:02:69
  TRACK 06 AUDIO
    TITLE "5:cjc157_4552"
    INDEX 01 00:03:39
  TRACK 07 AUDIO
    TITLE "0:"
    INDEX 01 00:05:50
  TRACK 08 AUDIO
    TITLE "3:cjc157_4553"
    INDEX 01 00:06:18
  TRACK 09 AUDIO
    TITLE "0:"
    INDEX 01 00:07:17
  TRACK 10 AUDIO
    TITLE "4:cjc157_4554"
    INDEX 01 00:07:62
  TRACK 11 AUDIO
    TITLE "0:"
    INDEX 01 00:08:72
  TRACK 12 AUDIO
    TITLE "5:cjc157_4555"
    INDEX 01 00:09:44
  TRACK 13 AUDIO
    TITLE "0:"
    INDEX 01 00:12:60
  TRACK 14 AUDIO
    TITLE "5:cjc157_4556"
    INDEX 01 00:13:30
  TRACK 15 AUDIO
    TITLE "0:"
    INDEX 01 00:16:30
  TRACK 16 AUDIO
    TITLE "3:cjc157_4557"
    INDEX 01 00:17:04
  TRACK 17 AUDIO
    TITLE "0:"
    INDEX 01 00:18:27
  TRACK 18 AUDIO
    TITLE "4:cjc157_4558"
    INDEX 01 00:18:66
  TRACK 19 AUDIO
    TITLE "0:"
    INDEX 01 00:20:10
  TRACK 20 AUDIO
    TITLE "5:cjc157_4559"
    INDEX 01 00:20:53
  TRACK 21 AUDIO
    TITLE "0:"
    INDEX 01 00:22:54
  TRACK 22 AUDIO
    TITLE "5:cjc157_4560"
    INDEX 01 00:23:24
  TRACK 23 AUDIO
    TITLE "0:"
    INDEX 01 00:26:15
  TRACK 24 AUDIO
    TITLE "3:cjc157_4561"
    INDEX 01 00:26:69
  TRACK 25 AUDIO
    TITLE "0:"
    INDEX 01 00:28:21
  TRACK 26 AUDIO
    TITLE "4:cjc157_4562"
    INDEX 01 00:28:62
  TRACK 27 AUDIO
    TITLE "0:"
    INDEX 01 00:30:12
  TRACK 28 AUDIO
    TITLE "5:cjc157_4563"
    INDEX 01 00:30:61
  TRACK 29 AUDIO
    TITLE "0:"
    INDEX 01 00:33:07
  TRACK 30 AUDIO
    TITLE "3:cjc157_4564"
    INDEX 01 00:33:50
  TRACK 31 AUDIO
    TITLE "0:"
    INDEX 01 00:34:69
  TRACK 32 AUDIO
    TITLE "4:cjc157_4565"
    INDEX 01 00:35:39
  TRACK 33 AUDIO
    TITLE "0:"
    INDEX 01 00:36:46
  TRACK 34 AUDIO
    TITLE "5:cjc157_4566"
    INDEX 01 00:37:20
  TRACK 35 AUDIO
    TITLE "0:"
    INDEX 01 00:40:52
  TRACK 36 AUDIO
    TITLE "3:cjc157_4567"
    INDEX 01 00:41:20
  TRACK 37 AUDIO
    TITLE "0:"
    INDEX 01 00:42:55
  TRACK 38 AUDIO
    TITLE "4:cjc157_4568"
    INDEX 01 00:43:25
  TRACK 39 AUDIO
    TITLE "0:"
    INDEX 01 00:44:38
  TRACK 40 AUDIO
    TITLE "5:cjc157_4569"
    INDEX 01 00:45:14
  TRACK 41 AUDIO
    TITLE "0:"
    INDEX 01 00:47:21
  TRACK 42 AUDIO
    TITLE "5:cjc157_4570"
    INDEX 01 00:47:68
  TRACK 43 AUDIO
    TITLE "0:"
    INDEX 01 00:50:70
  TRACK 44 AUDIO
    TITLE "3:cjc157_4571"
    INDEX 01 00:51:44
  TRACK 45 AUDIO
    TITLE "0:"
    INDEX 01 00:52:71
  TRACK 46 AUDIO
    TITLE "4:cjc157_4572"
    INDEX 01 00:53:41
  TRACK 47 AUDIO
    TITLE "0:"
    INDEX 01 00:54:66
  TRACK 48 AUDIO
    TITLE "5:cjc157_4573"
    INDEX 01 00:55:38
  TRACK 49 AUDIO
    TITLE "0:"
    INDEX 01 00:57:62
  TRACK 50 AUDIO
    TITLE "3:cjc157_4574"
    INDEX 01 00:58:36
  TRACK 51 AUDIO
    TITLE "0:"
    INDEX 01 00:59:53
  TRACK 52 AUDIO
    TITLE "4:cjc157_4575"
    INDEX 01 01:00:23
  TRACK 53 AUDIO
    TITLE "0:"
    INDEX 01 01:01:33
  TRACK 54 AUDIO
    TITLE "5:cjc157_4576"
    INDEX 01 01:02:06
  TRACK 55 AUDIO
    TITLE "0:"
    INDEX 01 01:04:54
  TRACK 56 AUDIO
    TITLE "5:cjc157_4577"
    INDEX 01 01:05:32
  TRACK 57 AUDIO
    TITLE "0:"
    INDEX 01 01:07:64
  TRACK 58 AUDIO
    TITLE "5:cjc157_4578"
    INDEX 01 01:08:35
  TRACK 59 AUDIO
    TITLE "0:"
    INDEX 01 01:10:61
  TRACK 60 AUDIO
    TITLE "3:cjc157_4579"
    INDEX 01 01:11:31
  TRACK 61 AUDIO
    TITLE "0:"
    INDEX 01 01:12:54
  TRACK 62 AUDIO
    TITLE "4:cjc157_4580"
    INDEX 01 01:13:28
  TRACK 63 AUDIO
    TITLE "0:"
    INDEX 01 01:14:41
  TRACK 64 AUDIO
    TITLE "5:cjc157_4581"
    INDEX 01 01:15:09
  TRACK 65 AUDIO
    TITLE "0:"
    INDEX 01 01:18:17
  TRACK 66 AUDIO
    TITLE "5:cjc157_4582"
    INDEX 01 01:18:62
  TRACK 67 AUDIO
    TITLE "0:"
    INDEX 01 01:20:51
  TRACK 68 AUDIO
    TITLE "3:cjc157_4583"
    INDEX 01 01:21:21
  TRACK 69 AUDIO
    TITLE "0:"
    INDEX 01 01:22:64
  TRACK 70 AUDIO
    TITLE "4:cjc157_4584"
    INDEX 01 01:23:36
  TRACK 71 AUDIO
    TITLE "0:"
    INDEX 01 01:24:63
  TRACK 72 AUDIO
    TITLE "5:cjc157_4585"
    INDEX 01 01:25:31
  TRACK 73 AUDIO
    TITLE "0:"
    INDEX 01 01:28:31
  TRACK 74 AUDIO
    TITLE "5:cjc157_4586"
    INDEX 01 01:29:03
  TRACK 75 AUDIO
    TITLE "0:"
    INDEX 01 01:31:14
